/* XPM */
static char *_82de2da8e914937e1e56cb0af6375e8bCaYNbpQ0UFzoXE0[] = {
/* columns rows colors chars-per-pixel */
"64 64 256 2 ",
"   c #362E03",
".  c #393705",
"X  c #393A19",
"o  c #2F2D07",
"O  c #3A382A",
"+  c #3C3C3B",
"@  c #3A3A37",
"#  c #333230",
"$  c #443A06",
"%  c #443C17",
"&  c #58330D",
"*  c #713115",
"=  c #453B27",
"-  c #583A2B",
";  c #453D3D",
":  c #4A3D3C",
">  c #473C34",
",  c #583739",
"<  c #542D32",
"1  c #782C27",
"2  c #683428",
"3  c #6B2E38",
"4  c #782935",
"5  c #643337",
"6  c #6E302B",
"7  c #6B1B28",
"8  c #1A5913",
"9  c #3A4604",
"0  c #2F5016",
"q  c #146D0A",
"w  c #0A7B0A",
"e  c #137B0D",
"r  c #1A6918",
"t  c #0D7D13",
"y  c #0D7615",
"u  c #137C14",
"i  c #187718",
"p  c #0D6A0D",
"a  c #256F11",
"s  c #1F5522",
"d  c #2D4C2B",
"f  c #3D452C",
"g  c #394829",
"h  c #2C532C",
"j  c #275A28",
"k  c #35562C",
"l  c #2E4B39",
"z  c #3C4433",
"x  c #344B33",
"c  c #36463C",
"v  c #3C443C",
"b  c #334A3C",
"n  c #3A4A3B",
"m  c #384833",
"M  c #375635",
"N  c #2E5430",
"B  c #1D6B22",
"V  c #1B7521",
"C  c #276626",
"Z  c #247426",
"A  c #326630",
"S  c #4B4401",
"D  c #474706",
"F  c #564805",
"G  c #4B5703",
"H  c #585704",
"J  c #484518",
"K  c #524B1A",
"L  c #585817",
"P  c #625603",
"I  c #685116",
"U  c #586709",
"Y  c #686603",
"T  c #6D7605",
"R  c #737400",
"E  c #6F6E13",
"W  c #424424",
"Q  c #42442D",
"!  c #494729",
"~  c #475326",
"^  c #434334",
"/  c #42423C",
"(  c #494738",
")  c #55493B",
"_  c #44563A",
"`  c #585436",
"'  c #545126",
"]  c #685434",
"[  c #706F2B",
"{  c #3C3C43",
"}  c #3A3A48",
"|  c #3C3C57",
" . c #342A4D",
".. c #3B3B63",
"X. c #453D44",
"o. c #4A3D44",
"O. c #433E4B",
"+. c #46384A",
"@. c #553944",
"#. c #423D53",
"$. c #473A58",
"%. c #4A3750",
"&. c #5D3550",
"*. c #2A4947",
"=. c #354644",
"-. c #3C4343",
";. c #3C424B",
":. c #374946",
">. c #3A4455",
",. c #3A5543",
"<. c #394462",
"1. c #424243",
"2. c #4B4344",
"3. c #43424A",
"4. c #4B444B",
"5. c #484B46",
"6. c #534A49",
"7. c #484656",
"8. c #544658",
"9. c #52524E",
"0. c #566941",
"q. c #726C4B",
"w. c #4C4566",
"e. c #644646",
"r. c #9A1E1A",
"t. c #9C0F17",
"y. c #BA1309",
"u. c #BC0C18",
"i. c #A71918",
"p. c #B81215",
"a. c #B11006",
"s. c #892818",
"d. c #942317",
"f. c #962506",
"g. c #A92D03",
"h. c #981C26",
"j. c #911D34",
"k. c #A51725",
"l. c #B1112A",
"z. c #872626",
"x. c #952325",
"c. c #8B2532",
"v. c #B42D2E",
"b. c #CD0B04",
"n. c #C40E0C",
"m. c #CC0B0B",
"M. c #C70907",
"N. c #D50604",
"B. c #DB0303",
"V. c #D30903",
"C. c #D5050B",
"Z. c #DB030B",
"A. c #D4090B",
"S. c #C21109",
"D. c #CB0A13",
"F. c #C70A14",
"G. c #D40612",
"H. c #CB1412",
"J. c #E20104",
"K. c #E3010A",
"L. c #EC000A",
"P. c #EA0005",
"I. c #F00006",
"U. c #E00011",
"Y. c #E52531",
"T. c #CE222C",
"R. c #85790C",
"E. c #837A31",
"W. c #994B24",
"Q. c #807B41",
"!. c #A95137",
"~. c #058603",
"^. c #0B8403",
"/. c #018A02",
"(. c #04850A",
"). c #0A820C",
"_. c #03890A",
"`. c #118107",
"'. c #0A8112",
"]. c #078311",
"[. c #148114",
"{. c #039200",
"}. c #088722",
"|. c #1A8E06",
" X c #7C8210",
".X c #7D8C29",
"XX c #6AA02F",
"oX c #79866A",
"OX c #85851C",
"+X c #8E920B",
"@X c #ACB112",
"#X c #8C8926",
"$X c #939232",
"%X c #97A82D",
"&X c #A6A829",
"*X c #B9B727",
"=X c #AFB137",
"-X c #A19F1B",
";X c #C2BB2F",
":X c #C3BA1F",
">X c #B9C918",
",X c #B9C438",
"<X c #B9C628",
"1X c #C9CB03",
"2X c #CAD605",
"3X c #D5DC03",
"4X c #DCDC02",
"5X c #DBDD0B",
"6X c #D7D608",
"7X c #C8CB15",
"8X c #CBD516",
"9X c #D7D917",
"0X c #D7CC0E",
"qX c #E1DA16",
"wX c #E2D805",
"eX c #DAE305",
"rX c #DCE21B",
"tX c #D5E516",
"yX c #CDE10C",
"uX c #E2E619",
"iX c #E8E90D",
"pX c #CCD526",
"aX c #D6DA26",
"sX c #C7CA36",
"dX c #D8DB37",
"fX c #C9CE2F",
"gX c #E2DC2A",
"hX c #D8E327",
"jX c #DAE637",
"kX c #C8E221",
"lX c #E5E728",
"zX c #E9F325",
"xX c #E3E638",
"cX c #F2ED2E",
"vX c #8C8C52",
"bX c #B0AF51",
"nX c #ADAA65",
"mX c #A2A052",
"MX c #D0AE59",
"NX c #BCC647",
"BX c #BCD24C",
"VX c #90C84B",
"CX c #C6C945",
"ZX c #D6D849",
"AX c #C8CA56",
"SX c #D5D957",
"DX c #CED04D",
"FX c #DBE448",
"GX c #DBE854",
"HX c #E6E94B",
"JX c #CECF6C",
"KX c #DAEA61",
"LX c #E9E564",
"PX c #A9AA83",
"IX c #CEC787",
"UX c #F2D484",
/* pixels */
"/././.~.^.^.).).).(.(.(.).).`.^.~.{.{.w |.XX>X8XdXdXxXdXSXJXAXKXNXFXpX7X9X8XfXGXGXCXDXLXMXW.t.l.G.K.N.b.A.N.V.b.S.y.y.b.B.B.M.n.",
"/././.~.^.^.).).).).(.~.).).^.^.{././.`.a VXKX<XR R R P P [ E Y T =XZXFXHXsX+XY T Y T R.W.s.h.l.D.C.C.C.C.N.N.V.m.S.b.A.J.J.N.M.",
"/././.~.^.^.).).).(.(.(.(.^.^.).}.w ).|.r XXvX[   $ E.$X[ J . J D [ $X$X$XE.K o X X X $ & 1 c.j.i.n.Z.U.Z.Z.Z.Z.Z.Z.K.P.P.P.J.Z.",
"/./.~.~.^.^.^.^.~._.(.(.~.~.^.).}.}.[.a 8 8 9 [ ] q.JXJXq.% O ) W J $ $ % % > 8.>.>.5.^ - 5 3 4 z.r.F.G.D.D.F.D.G.K.L.L.P.K.J.Z.",
"/./.~.^.^.^.^.^././._._._.~.).).w [.e q a U %XAXUXJXJX[   J ` Q ^ Q = = : ; } w.<.>.:.:./ ( , < - 2 z.k.l.i.d.r.u.G.Z.K.K.Z.A.b.",
"_./.~.^.^.^.~.~./././._./.(.).).u q a a a XXSXNXD S L K = 9._ # @ 5.6.( o.8.7.| >.*.*.b n z ; : ^ ! 6 4 c.z.1 1 r.p.D.C.Z.C.V.b.",
"(.(.~.^.^.^.~./././././.(.(.).u Z 8 A A d 0.vXL K = ( X.} } + 9.-.-.1.@ # 2.4.;.;.:.b l x m / / v / , , 5 6 6 6 1 s.p.D.m.A.A.N.",
"(.(.~.^.^.^.~././././._.(.).t i A j s d n O X = > o.8.} | 7.{ ;.7.} { 4.2.; / 1.@ :.n x x n c + 1.1.1./ : , , - 2 1 i.p.p.n.A.B.",
"(.(.(.^.^.~.~./././._.(.'.u u B j l d d g z 1.O.$.+.8.+.@ 1.+ 7.;.7.@ { 4.X.4.# 9.@ ;.{ 7.{ 3.+ O.-.*.*.1.: / > 6 1 s.r.i.y.m.B.",
"(.(.(.^.^.~.~./././.(.).u i r C l =.m g g f 1.#.#.+.+.4.^ ^ ( z f m 5.4.2.X.2.9.@ { O.O.7.O.4.4.O.;.*.*.-.1.v : 6 z.z.s.s.f.n.Z.",
"(.(.(.~.~.~.~././._.).t i B B j =.;.-.v f f / 1.+ 2.X.9.! X ` . D o ~ g X ( > : 2.4.+.} +.4.; 1.-.:.*.*.=.-.: , 4 j.h.s.* * y.Z.",
"(.(.(.~.~.~.~.~./.(.t i B C j d c ;.;.-.z z 1.1.z / @ O . E bXmX=X%XmX[ . J J o ! ) o.+.8.o.> ^ -.=.-.-.-.X.o.3 j.k.k.x.& * y.K.",
"(.(.(.~.~.~.~.~.~.).u i C j d g g Q / 1.v v ;.3./ ^ 6.= L =XFXlXaXxXGXbXY G .X#X$ % ) : 9.O ^ ( / X.X.o.@.@., 3 j.l.l.h.* s.D.L.",
"(.(.(.~.~.~.~.^.^.e i B j h m z W Q / 1./ -.>.| 1.> 6.! #XFX9X1X6X6X7XdX@X+XNXKX$XH % O 2.@ ( ^ : : ; : , , : , j.l.l.h.1 s.D.L.",
"(.(.~.~.~.~.^.^.^.u i C h x / 2.X.X.O.1.^ v | | 3.> X D -XdXqXiXiXwX0XlXjXpXpXFXGX X9 ` + 7.3.+ / / c v : : b v , 4 h.h.1 s.F.U.",
"(.(.(.~.^.^.).e i V C N N n / 4.O.O.O.1.^ v | | @ 6.! vXFX9X1X5X0XwXuX6X9XlX2X8XdX+XE PX1.7.} 1.v n c c / / b b / , z.z.1 s.F.K.",
"(.(.(.(.).u i Z j h x b -.-.-.-.1.X.X.1./ v | #.O.9.= bXhXeX1XlX4X4XiX1X5XlX2X9XFX X XIX@ $.9.O c c / / / / c b c : 4 z.1 d.A.L.",
").).).).u i C C N b -.-.-.-.-.-.1.1.1./ ^ / O.#.{ / = [ 7XzX8X8XuX1X4XeX4XeX3X2XdXR R JX( +./ ( c =./ : ; / -.-.c / 5 1 z.i.C.I.",
"w ).[.u u r r j x n 1.1.1.1.-.-.#.O./ Q W Q 1.O.1.; 6.% OX<X*XxXaX9X3XeXeX2XeXiXzX+X+XbX! +.X.4.-.c / ; : ; 1.-.-.; , 6 x.p.C.J.",
"t u u u q r 8 h x v 1.X.X.1.1.1.O.O./ Q J W 1.3.3.3.8.O D S R DXZXxX6X4X3X3XzX7X7XfXdXAX! X.X.1.1.1.1./ : o.X.1.X.; : 6 k.F.C.B.",
"u u u q r r C k m / 2.o.o.1.2./ ^ / 3.-.f f 1.O.#.#. .6.!   % [ DXdX9XrX9XHXSXY H mXJXbXW ; ^ / ; X.1.1.o.o.X.X.X.X./ 5 k.D.m.m.",
"i i q q r C A M m / 2.o.o.2.2./ Q z ;.;.f f 1.#.7.O.O vXnXnXvX. E DXaX7XxXsXR.F   H R E % ( ( / X.X.1.1.X.o.X.X.o.X./ 5 l.D.n.n.",
"i y p p r Z A k x v X.o.o.1.2.1.v -.>.;.g g 1.#.7.^ .X<XjXLXJXD   $XsX7XlX@XR +X#XR T T D ( 7.#.O.1.-.1.X.X.1.X.X.X.: 6 k.F.n.n.",
"i p p p i Z C h x v 1.1.1.1.1.1.v -.| ;.f W / O.O.X NX<X>X>X=XH ] o +XxX8XaXZXCXJXKXHXfXL O 3.7.O.1.-.-.1.1.-.-.X.o., 6 h.p.n.m.",
"y y u u i Z C j x c -.1.1.-.-.n m n | 7.3.v + @ 2.= D G D 9 T NXK D -XaXhX7XP   bXAXjXfXbX' 5.+ -.-.-.-.-.-.=.=.-.o.5 4 z.i.n.A.",
"t t t y i V C j N b -.-.-.-.-.c m v 7.7.} { 2.2.O ` nXE . .X,XSXL . -XxXpXdXNXP P P +XfXJXJ O v -.-.1.v -.=.=.=.-.: 3 c.1 d.n.N.",
"].'.'.t u V Z j h b -.-.-.-.-.c v -.3.3.X.2.; ; 6.J AX*X+X-X,XOXW % #XFXpXdXSXP $ Y @XdXJX! ; -.-.-./ / c b =.=.-., 4 c.1 d.n.B.",
"(.(.(.).t i B j h b -.-.-.-.-.-.1.v + { 4.2.> O = D CXhXjXFXJX. = ` %XZXaXxXsX+XR.;XlXdXbX' 6.{ -.c / / c b b c 1., c.c.z.d.n.B.",
"_._.~.^.e i r s h b -.1.1.1.-.v ^ z { O.#.4.` [ ] S sXaXjXCXvX( : J &XpX9XuXrXlXgX9X3X9XAXK ! ; / / / v c c c / o.5 4 h.r.i.m.B.",
"/.~.~.^.).i r s h m v X.O.1.1./ z z 2.4.+.> E.JXnXH pX8X9X&X$ ) 6.  &XxX1X4X5XuXgX2X3XtXAXD W ^ / / / / v v / : , 3 4 h.i.n.V.V.",
"/./.~.^.`.i r s d m 1.X.+.o.X.O.#.} / ) > % #XLXsX@XzX2X2XHX#XS ` % %XxX9X5X6X0X0X9XiXrXAXK ! ^ : : / z / / : , 5 3 4 x.F.Z.A.V.",
"/./.~.^.`.u i r h x / o.o.o.X.O.w.} O ( ^ $ +XjX8XrX2XiX3X8XDXS . K Y &XxX9X0XlXgX9X6X9XAXK ! > : : / / v / / : 5 4 z.k.G.K.V.b.",
"/./.~.^.w w w r A N m / o.X.{ } | } + ( ^ J OXdX8XuX1X3XuX9X*XS E [ o E.DX@XcX0X0X9X5X1XSXG W / : : ; / =.=.b v , 4 h.u.A.B.V.b.",
"/./.~.^.^.w w y Z j x / o.X.{ ;.>.| + ^ ; W #XHX8X3X6X5XiXuX@XY SXY $ bX*XY 1XqX0X9XlXjX=XG ^ { 1.2.o.X.-.=.b / 5 z.p.D.C.B.V.V.",
"/./.~.^.^.^.w y B j m / o.X.-.;.7.3.v ^ ; ! E.DXaX9XuX2X1XeXaXaX8XtX7X8XeX1XcXqXqX9X8XsXH o 4.7.3.X.o.o.X./ / , 6 x.u.D.Z.B.B.V.",
"/./.~.^.^.^.).u B j d / o.o.-.-.1.1.^ / X.= L #XGXdXdXaX2X9XjXjXaXzXtX2XeXiX6X0X0X9XdX=XL ^ 7.| ;.1.o.@., , , 6 z.r.u.A.B.J.B.B.",
"_._.~.^.^.^.).[.V j d / 2.X.-.-.z ^ Q / 4.X.= K $X#X#XAXLXFXCX X#XY @XhX6X5XqX9X9XdXCXE ' 1.| | >.1.o., 5 6 1 z.r.i.F.C.J.J.B.B.",
"_._.~.^.^.^.).[.V s d ^ 2.X.-.v f Q f ^ 4.7.; > X %   [ mX$X$XS K [ =XdX8XlX6X6XrXdX&Xo J @ | w.>.;.o., 4 z.x.i.i.y.m.Z.J.J.J.Z.",
"(._.~.^.^.^.~.'.i B d z / X.-.c f ! Q @ 4.7.#.%.4.2.O Q J X ' X IXJXCXfXpX9X1XiXeXhX=X9 ' 5.| ..>.;.o.5 4 h.i.p.y.y.b.B.J.J.Z.Z.",
"(.~.^.^.^.~._.).i B h m / ; v v O ( / @ X.O.} O.7.+.4./ O ( ! J F $ $ H R dXzX1XeX8X&X9 X ( } >.>.;.2., z.k.p.n.M.M.b.B.J.J.Z.C.",
"(.~.^.^.^.~./.(.i Z M m ^ / -.-.1.2.X.X.1.1.1.1.1.1.@ f ! g . $   =X;XR.S Y sXhXeXtX%XD Q @ / c =.;./ , z.i.F.V.b.b.V.N.J.K.C.A.",
"(.).^.^.^.~./.(.t Z k m z / -.-.O.O.O.X./ / / / + @ ^ Q Q q.mXnX&XZXHX*X$X=XsXaXtX@XY X @ 1.Q f -.;.v , z.i.m.B.V.b.V.N.J.Z.A.m.",
"(.).^.^.^.~./._.t V N x z / -.-.O.#.#.O.^ ^ / v 3.@ 5./ # q.PXmXSXgXcX9XpXHX8X8XjX+X. X.+.8.O W X.1.c > 1 i.m.B.V.V.V.N.J.Z.m.n.",
").).^.^.^././._.'.V N x z / v -.O.#.#.O.^ Q v -.7.} 3.3.@ 2.` S DX:X7X7X9XuX2XpXDX[ # 8.$.8.^ = : o.n ! 1 r.F.Z.N.V.V.B.J.Z.m.n.",
").).^.^.^./././.'.i C x z / / -.3.O.#.X.Q Q 1.| ..$.#.#.$.@ X $ F $ F +X8X2XhXGXQ.@.$.$.$.: ) , , , v Q 6 d.F.Z.N.N.B.B.P.J.b.S.",
").).^.^.^./././.].i C k f / / v 1.O.O.1.Q Q -.| | w.O.X.o.> [ mXmXbX&X;XlXrXfXOX= +.8.+.@.= ) , 3 5 ^ Q 2 x.F.G.C.N.B.J.P.J.b.y.",
").).^.^.~./././.].i C k f / v v 1.O.O.1.W W v ;.#.#./ W X L &XFXaXcXlX9X3X9X-X$ > %.) = ! - , , 3 3 ^ Q 2 z.u.G.C.B.J.P.I.P.b.S.",
").^.^.^.~././.(.'.V C k m / / 1.1.2.1./ f f v -.3.# ^ ! X [ ,XpXlX1X9XhX7X-XF ! ; 6.$ S & ] 6 4 c.4 - - 2 s.p.G.Z.K.J.P.P.J.b.S.",
"/././././.~.(.'.i Z j d m 2.o.X.> ( ^ f n n @ @ 5.@ ; @ / g U BXsX@XAXJXvX$ ! / @ z ] I * s.k.l.k.x.1 * * s.p.m.K.L.I.L.K.C.m.n.",
"/./././._.(.'.u V C j d m 1.2.X.> / z z :.5.:.5./ ; 4.7.8.z o G G G K J ] = ( @ m oXIXMX* f.T.u.u.i.d.s.s.d.a.m.K.I.I.P.Z.A.m.m.",
"^.~.~.~.(.(.).t i r s j x _ / ; 4.O.{ { } { @ @ + @ %. .$.8.Q g ~ Q X X ' % ! g O 0.mXUX!.g.y.y.D.u.i.r.d.f.y.m.J.P.P.J.B.N.V.b.",
").).).(.(.(.(.).u y r 8 h M n v 3.#.#.7.>.;.5./ 6.4.w.$. .} / @ 7.} 9.) $ F vX' g X J mXUXg.a.H.G.D.p.i.i.a.y.b.J.J.J.B.N.N.N.N.",
"u t '.).(.(.(.(.).w p 8 j M M m 3.#.7.7.{ m g X X = @.8.8.4.4.O. ...8.X $ $XJXL X ` % I MXg.a.y.C.G.D.y.y.y.M.N.B.J.B.B.N.N.B.B.",
"u u '.).(._./.(.(.e y r C A M m 5.3.7.;.O ~ L G L K X = > = ( 2.w.w.> . OXDXAXH X ( = 2 * f.g.a.C.Z.A.m.m.b.N.B.B.B.B.N.N.B.J.J.",
"t '.).(././././.~.e i r C M M m f @ 3.v ~ $XBX,XAXbXE S S $ $ % ( X $ E sXZXNXU W + # e.& z.x.v.u.m.m.A.C.B.B.B.J.B.B.N.B.B.J.J.",
").).(.~./././.~.).u i C A M n m ( Q / g 9 %XFXhXfXHX*X&X=X=XbXbXS . OXCXaXjXZXG X 4.4.@ 5 3 7 c.i.p.n.m.C.B.J.J.J.B.B.B.B.B.J.J.",
"~.~.~./././.~.).[.i C j N n 1./ Q f z ~ G %XkXyXtXrXaXgXaXdXZXZX+X-X*XpXrXhXZXG g ;.>.3.: , &.3 z.r.i.p.m.Z.K.K.J.J.J.J.J.J.J.J.",
"/./././.~.~.).u i B C N b -.1.2._ g O g G &XhX2XeXeX4X5X5X5XaXaXaX9XrXuXuXhXSXU f ;.>.;.v / %.@.2 * d.i.u.D.G.Z.Z.B.B.B.B.B.B.B.",
"/././.~.).e u i r j h x v 1.O.1.m m n _ 9 %XjX2XeXeX4X4X4X5X5X5XiXeX5X6X6XpXDXG m =.:.=.m m -.2.> - 1 x.i.p.F.F.H.A.Z.K.K.Z.N.A.",
"~.~.^.`.u i r C j N x c { O.+.O.c c ,._ 0 mXGX7XeXeX4X4X4X5X5X5X3X3X4X6X9XaXSXL f =.=.b x x c -.z ! 2 1 z.h.i.i.p.n.m.C.Z.C.b.M.",
"^.`.e i V C j h x n v -.1.1.3.1.5.b b M k mXSXpX5X4X4X6X6X6X3X3X3X4X5X5X9XaXDXH Q -.-.n m g c =.c / , 5 6 1 1 s.x.i.H.G.G.G.D.m.",
"[.u i r C j N m c 1.1.1.1.1.1.-.b ,.,._ 0 [ bXFX9X4XwX5X9X9X5X4X5X6X6X6X6XpXDXH = X.1.-.z z c -.=.-.: , , - - 2 z.d.p.D.G.G.D.H.",
"i r r s h x n 1.X.X.X.1.1.v n m d ,._ 0.0 9 E ,XaX5X5XqXaX9X5X3XrX9X9X5X5XaXZXY = o.+.O./ / O.;.;.;.X.X.; ^ Q = 2 1 i.u.F.D.F.n.",
"r r 8 s d x / 1.X.X.X.X./ n m x M N d _ ~ 9 . R 9X5X6X0XaX9X3X3X9X9X9X5X3X9XfXF = o.%.%.o.2.O.#.;.;.O.X.v m m f ] W.v.T.Y.Y.Y.Y."
};
